<?xml version="1.0" standalone="no"?>
<!DOCTYPE svg PUBLIC "-//W3C//DTD SVG 20010904//EN"
 "http://www.w3.org/TR/2001/REC-SVG-20010904/DTD/svg10.dtd">
<svg version="1.0" xmlns="http://www.w3.org/2000/svg"
 width="256.000000pt" height="256.000000pt" viewBox="0 0 256.000000 256.000000"
 preserveAspectRatio="xMidYMid meet">

<g transform="translate(0.000000,256.000000) scale(0.100000,-0.100000)"
fill="#000000" stroke="none">
<path d="M872 2342 c-47 -28 -64 -44 -69 -65 -4 -21 -10 -26 -22 -21 -9 4 -37
9 -63 12 -45 4 -57 -2 -208 -89 -168 -96 -215 -136 -225 -191 -4 -18 -5 -114
-3 -214 4 -235 -4 -223 217 -350 220 -125 208 -125 423 -1 222 127 212 111
216 356 2 107 1 204 -2 216 -3 12 -16 38 -30 57 -24 36 -24 37 -5 54 15 14 19
31 19 91 0 41 -5 83 -10 93 -12 23 -129 90 -156 90 -10 -1 -47 -18 -82 -38z
m183 -97 c0 -5 -33 -11 -72 -13 -88 -3 -98 -22 -13 -22 33 0 60 -4 60 -10 0
-6 -27 -10 -60 -10 -56 0 -61 -2 -71 -27 -6 -17 -13 -23 -20 -16 -13 13 4 93
23 105 18 11 153 5 153 -7z m-285 -40 c24 -12 29 -22 32 -57 3 -39 7 -44 63
-79 65 -41 90 -46 143 -27 32 12 35 11 58 -15 24 -28 24 -31 24 -226 0 -182
-2 -200 -20 -223 -10 -14 -87 -64 -169 -111 -116 -67 -159 -87 -188 -87 -51 0
-337 161 -364 205 -17 26 -19 53 -19 217 l0 188 28 30 c15 17 92 69 172 115
153 90 185 99 240 70z"/>
<path d="M561 1980 c-89 -21 -150 -129 -151 -267 0 -78 -21 -73 301 -73 l290
0 -3 78 -3 77 -45 0 c-42 0 -45 -2 -48 -27 l-3 -28 -191 0 -191 0 6 42 c3 23
14 53 25 67 l19 26 217 3 217 2 -3 53 -3 52 -200 2 c-110 0 -215 -2 -234 -7z"/>
<path d="M1601 1499 c-212 -41 -371 -243 -371 -468 1 -167 27 -217 256 -493
102 -123 194 -229 204 -236 11 -8 25 -10 33 -5 28 15 389 458 413 505 13 26
31 76 39 110 83 354 -214 658 -574 587z m202 -74 c126 -33 217 -106 274 -221
30 -62 37 -88 41 -153 6 -100 -21 -195 -75 -269 -57 -77 -327 -401 -335 -401
-16 -2 -157 180 -173 223 -33 86 -2 219 70 305 35 40 122 111 138 111 6 0 -2
-12 -18 -27 -37 -35 -95 -106 -123 -154 -27 -46 -55 -153 -47 -180 6 -19 12
-20 53 -14 63 9 161 55 209 99 22 19 55 64 74 98 33 62 34 65 34 183 0 138
-15 194 -75 272 -53 70 -132 108 -226 108 -76 0 -76 10 -1 24 66 14 118 12
180 -4z m-67 -76 c44 -21 114 -90 114 -112 0 -7 -29 -20 -69 -30 -243 -63
-341 -216 -301 -473 7 -46 11 -86 8 -89 -8 -9 -126 140 -153 193 -79 157 -48
345 76 456 62 56 113 74 208 75 56 1 85 -4 117 -20z"/>
</g>
</svg>
